<?xml version="1.0" encoding="utf-8"?>
<!-- Svg Vector Icons : http://www.onlinewebfonts.com/icon -->
<!DOCTYPE svg PUBLIC "-//W3C//DTD SVG 1.1//EN" "http://www.w3.org/Graphics/SVG/1.1/DTD/svg11.dtd">
<svg version="1.1" xmlns="http://www.w3.org/2000/svg" xmlns:xlink="http://www.w3.org/1999/xlink" x="0px" y="0px" viewBox="0 0 256 256" enable-background="new 0 0 256 256" xml:space="preserve">
<metadata> Svg Vector Icons : http://www.onlinewebfonts.com/icon </metadata>
<g><g><path fill="#000000" d="M222.4,128.1h-56l-38.4,31v-31h-4.7c-13,0-23.6-10.6-23.6-23.6V52.6c0-13,10.6-23.6,23.6-23.6h99.1c13,0,23.6,10.6,23.6,23.6v51.9C246,117.5,235.4,128.1,222.4,128.1z M134.9,68c3.7,0,6.5,1.1,7.9,1.8l1.9-6.9c-2.3-1.1-5.4-1.9-9.7-1.9c-9,0-14.4,4.9-14.4,11.4c0,5.5,4.2,9.1,10.5,11.3c4.6,1.6,6.4,3,6.4,5.3c0,2.5-2.1,4.1-6.1,4.1c-3.7,0-7.3-1.2-9.6-2.4l-1.8,7.1c2.1,1.2,6.5,2.4,10.8,2.4c10.5,0,15.3-5.4,15.3-11.8c0-5.4-3.1-8.9-9.9-11.4c-5-1.9-7.1-2.9-7.1-5.4C129.4,69.8,131.2,68,134.9,68z M191.4,61.6h-11.3l-4,12.7c-1.3,4.2-2.6,9.3-3.6,13.7h-0.2c-0.8-4.5-2-9.2-3.2-13.7l-3.7-12.7h-11.5l-2.5,38.2h8l0.7-14.5c0.2-4.7,0.5-10.6,0.6-15.8h0.1c1,5,2.2,10.4,3.5,15l4.1,14.7h6.7l4.6-14.9c1.5-4.5,3.1-9.9,4.3-14.8h0.1c0,5.5,0.2,11.1,0.3,15.7l0.6,14.6h8.4L191.4,61.6z M213.4,68c3.7,0,6.5,1.1,7.9,1.8l1.9-6.9c-2.3-1.1-5.4-1.9-9.7-1.9c-9,0-14.5,4.9-14.5,11.4c0,5.5,4.2,9.1,10.5,11.3c4.6,1.6,6.4,3,6.4,5.3c0,2.5-2.1,4.1-6,4.1c-3.7,0-7.3-1.2-9.6-2.4l-1.8,7.1c2.1,1.2,6.5,2.4,10.8,2.4c10.5,0,15.3-5.4,15.3-11.8c0-5.4-3.1-8.9-9.9-11.4c-5-1.9-7.1-2.9-7.1-5.4C207.9,69.8,209.7,68,213.4,68z M90.2,43.1v4.6H19.4v155.8h104v-23l9.4-9.4v54.8c0,10.8-8.8,20-19.6,20H29.6c-10.8,0-19.6-9.2-19.6-20V29.7c0-10.8,8.8-19.6,19.6-19.6h83.6c7.1,0,13.2,3.8,16.7,9.4h-16C100.8,19.5,90.2,30.1,90.2,43.1z M72.8,237.7c6.5,0,11.8-5.3,11.8-11.8c0-6.5-5.3-11.8-11.8-11.8c-6.5,0-11.8,5.3-11.8,11.8C61,232.4,66.3,237.7,72.8,237.7z M84.5,25.4H61c-2.2,0-3.9,1.8-3.9,3.9c0,2.2,1.8,3.9,3.9,3.9h23.6c2.2,0,3.9-1.8,3.9-3.9C88.5,27.1,86.7,25.4,84.5,25.4z"/></g></g>
</svg>